<svg width="38" height="32" viewBox="0 0 38 32" fill="none" xmlns="http://www.w3.org/2000/svg">
<mask id="path-1-outside-1" maskUnits="userSpaceOnUse" x="0.390625" y="0" width="38" height="32" fill="black">
<rect fill="white" x="0.390625" width="38" height="32"/>
<path d="M5.89062 7C5.89062 4.23858 8.1292 2 10.8906 2H26.8906C29.652 2 31.8906 4.23858 31.8906 7V20C31.8906 22.7614 29.652 25 26.8906 25H10.8906C8.1292 25 5.89062 22.7614 5.89062 20V7Z"/>
</mask>
<path d="M5.89062 7C5.89062 4.23858 8.1292 2 10.8906 2H26.8906C29.652 2 31.8906 4.23858 31.8906 7V20C31.8906 22.7614 29.652 25 26.8906 25H10.8906C8.1292 25 5.89062 22.7614 5.89062 20V7Z" fill="#FE8E05"/>
<path d="M1.39062 24.5H0.390625C0.390625 24.5256 0.391608 24.5512 0.393571 24.5767L1.39062 24.5ZM29.8906 31V32C29.9144 32 29.9382 31.9992 29.9619 31.9975L29.8906 31ZM0.390625 14V24.5H2.39062V14H0.390625ZM0.393571 24.5767C0.486973 25.7909 0.92738 27.5963 1.97857 29.1283C3.05641 30.6991 4.79938 32 7.39062 32V30C5.58187 30 4.40817 29.1342 3.62768 27.9967C2.82054 26.8204 2.46094 25.3757 2.38768 24.4233L0.393571 24.5767ZM7.39062 32H29.8906V30H7.39062V32ZM29.9619 31.9975C31.2891 31.9027 33.2417 31.3731 34.8862 30.0716C36.5712 28.7381 37.8906 26.6218 37.8906 23.5H35.8906C35.8906 25.9782 34.8767 27.5286 33.645 28.5034C32.3729 29.5102 30.8254 29.9307 29.8194 30.0025L29.9619 31.9975ZM37.8906 23.5V14H35.8906V23.5H37.8906ZM10.8906 4H26.8906V0H10.8906V4ZM29.8906 7V20H33.8906V7H29.8906ZM26.8906 23H10.8906V27H26.8906V23ZM7.89062 20V7H3.89062V20H7.89062ZM10.8906 23C9.23377 23 7.89062 21.6569 7.89062 20H3.89062C3.89062 23.866 7.02463 27 10.8906 27V23ZM29.8906 20C29.8906 21.6569 28.5475 23 26.8906 23V27C30.7566 27 33.8906 23.866 33.8906 20H29.8906ZM26.8906 4C28.5475 4 29.8906 5.34315 29.8906 7H33.8906C33.8906 3.13401 30.7566 0 26.8906 0V4ZM10.8906 0C7.02463 0 3.89062 3.13401 3.89062 7H7.89062C7.89062 5.34315 9.23377 4 10.8906 4V0Z" fill="#FE8E05" mask="url(#path-1-outside-1)"/>
</svg>
